# xmcd
#
# Track frame offsets: 
#        150
#        2037
#        2829
#        6321
#        7890
#        18774
#        39025
#        45342
#        58692
#        62874
#        70518
#        76370
#        84097
#        94380
#        106807
#        118984
#        123364
#        129869
#        144604
#        147972
#        150618
#        165768
#
# Disc length: 2420 seconds
#
# Revision: 0
# Processed by: cddbd v1.5.2PL0 Copyright (c) Steve Scherf et al.
# Submitted via: ExactAudioCopy v0.99pb4
#
DISCID=00097216
DTITLE=Calefax Rietkwintet / De Muziekfabriek
DYEAR=2010
DGENRE=Classic for Kids
TTITLE0=Aan het werk!
TTITLE1=Instructievogel 1
TTITLE2=Blazen op een buis
TTITLE3=Instructievogel 2
TTITLE4=Blazen op een telescoop
TTITLE5=Ontdekking von muziekinstrumenten
TTITLE6=Overalls uit
TTITLE7=Alle ogen op Jelte
TTITLE8=Jelte uitkleden
TTITLE9=Als 2 honden vechten om 1 been
TTITLE10=De drietrapsklarinet
TTITLE11=De foto-shoot
TTITLE12=Raaf wordt weggestuurd
TTITLE13=Eindelijk met z´n vieren
TTITLE14=Raaf verliefd
TTITLE15=Gevecht
TTITLE16=Strafsaxofoon
TTITLE17=Spijt
TTITLE18=Raaf wordt opgelapt
TTITLE19=Raaf doet mee
TTITLE20=Allemaal samen
TTITLE21=De cd-machine
EXTD=
EXTT0=Mozart Allegro KV 375
EXTT1=
EXTT2=Beethoven Romance
EXTT3=
EXTT4=Byrd Agnus Dei
EXTT5=Wesly Assemble\n
EXTT6=Hindemith Interludium
EXTT7=Debussy Jimbo's lullaby
EXTT8=Prokofjev Feroco
EXTT9=Prokofjev Ridicolosamente+improvisatie
EXTT10=Bach/Gounod Ave Maria\n
EXTT11=Sjostakowitsj Fuga 5 uit opus 87\n
EXTT12=Hindemith Fuga9
EXTT13=Scalaratti Sonate f klein
EXTT14=Debussy Syrinx
EXTT15=Bach Goldbergvariaties, variatie 1
EXTT16=Mozart/Althuis Altijd is kortjakje
EXTT17=Rameau Gavotte uit Boréades
EXTT18=Bach Goldbergvariaties, variatie 19
EXTT19=Bach Goldbergvariaties, variatie 4
EXTT20=Mozart Allegro KV375
EXTT21=Ter Doest Mars
PLAYORDER=
